HIERARCHY
ROOT Hips
{
  OFFSET 54.202 84.304 7.35092
  CHANNELS 6 Xposition Yposition Zposition Zrotation Xrotation Yrotation
  JOINT spine
  {
    OFFSET 0 5.95438 0.342407
    CHANNELS 3 Zrotation Xrotation Yrotation
    JOINT spine1
    {
      OFFSET 0 8.85602 0
      CHANNELS 3 Zrotation Xrotation Yrotation
      JOINT spine2
      {
        OFFSET 0 8.48567 0
        CHANNELS 3 Zrotation Xrotation Yrotation
        JOINT Neck
        {
          OFFSET 0 21.7863 1.0387
          CHANNELS 3 Zrotation Xrotation Yrotation
          JOINT Head
          {
            OFFSET 0 6.5822 0
            CHANNELS 3 Zrotation Xrotation Yrotation
            End Site
            {
              OFFSET 0 15.9326 -5.25436
            }
          }
        }
        JOINT RightShoulder
        {
          OFFSET -3.57307 9.16386 -0.497525
          CHANNELS 3 Zrotation Xrotation Yrotation
          JOINT RightArm
          {
            OFFSET 0 12.0192 0
            CHANNELS 3 Zrotation Xrotation Yrotation
            JOINT RightArmRoll
            {
              OFFSET 0 6.06755 0
              CHANNELS 3 Zrotation Xrotation Yrotation
              JOINT RightForeArm
              {
                OFFSET 0 17.6726 0
                CHANNELS 3 Zrotation Xrotation Yrotation
                JOINT RightForeArmRoll
                {
                  OFFSET 0 6.80873 0
                  CHANNELS 3 Zrotation Xrotation Yrotation
                  JOINT RightHand
                  {
                    OFFSET 0 13.6636 0
                    CHANNELS 3 Zrotation Xrotation Yrotation
                    End Site
                    {
                      OFFSET 0 0 0
                    }
                  }
                }
              }
            }
          }
        }
        JOINT LeftShoulder
        {
          OFFSET 3.57307 9.16386 -0.497525
          CHANNELS 3 Zrotation Xrotation Yrotation
          JOINT LeftArm
          {
            OFFSET 0 12.0192 0
            CHANNELS 3 Zrotation Xrotation Yrotation
            JOINT LeftArmRoll
            {
              OFFSET 0 6.06755 0
              CHANNELS 3 Zrotation Xrotation Yrotation
              JOINT LeftForeArm
              {
                OFFSET 0 17.6726 0
                CHANNELS 3 Zrotation Xrotation Yrotation
                JOINT LeftForeArmRoll
                {
                  OFFSET 0 6.80872 0
                  CHANNELS 3 Zrotation Xrotation Yrotation
                  JOINT LeftHand
                  {
                    OFFSET 0 13.6636 0
                    CHANNELS 3 Zrotation Xrotation Yrotation
                    End Site
                    {
                      OFFSET 0 0 0
                    }
                  }
                }
              }
            }
          }
        }
      }
    }
  }
  JOINT RightUpLeg
  {
    OFFSET -5.27774 -0.967797 -0.811858
    CHANNELS 3 Zrotation Xrotation Yrotation
    JOINT RightUpLegRoll
    {
      OFFSET 0 16.0214 0
      CHANNELS 3 Zrotation Xrotation Yrotation
      JOINT RightLeg
      {
        OFFSET 0 -19.8401 0
        CHANNELS 3 Zrotation Xrotation Yrotation
        JOINT RightLegRoll
        {
          OFFSET 0 19.905 0
          CHANNELS 3 Zrotation Xrotation Yrotation
          JOINT RightFoot
          {
            OFFSET 0 16.5675 0
            CHANNELS 3 Zrotation Xrotation Yrotation
            JOINT RightToeBase
            {
              OFFSET 0 13.8496 0
              CHANNELS 3 Zrotation Xrotation Yrotation
              End Site
              {
                OFFSET 0.00587034 6.70727 -0.773117
              }
            }
          }
        }
      }
    }
  }
  JOINT LeftUpLeg
  {
    OFFSET 5.27774 -0.967797 -0.811858
    CHANNELS 3 Zrotation Xrotation Yrotation
    JOINT LeftUpLegRoll
    {
      OFFSET 0 16.0215 0
      CHANNELS 3 Zrotation Xrotation Yrotation
      JOINT LeftLeg
      {
        OFFSET 0 19.84 0
        CHANNELS 3 Zrotation Xrotation Yrotation
        JOINT LeftLegRoll
        {
          OFFSET 0 20.089 0
          CHANNELS 3 Zrotation Xrotation Yrotation
          JOINT LeftFoot
          {
            OFFSET 0 16.3835 0
            CHANNELS 3 Zrotation Xrotation Yrotation
            JOINT LeftToeBase
            {
              OFFSET 0 13.8496 0
              CHANNELS 3 Zrotation Xrotation Yrotation
              End Site
              {
                OFFSET -0.0263083 6.70727 -0.773117
              }
            }
          }
        }
      }
    }
  }
}
MOTION
Frames: 10
Frame Time: 0.00208333
52.6047 84.3736 3.32536 0.0642633 -9.14247 -2.22077 0.323396 -0.311713 0.0629066 0.647243 3.3733 0.101177 0.646852 5.0183 0.0901406 -6.47948 9.33926 0.831323 6.13588 8.33003 -1.12923 72.0692 -0.155224 -1.54876 106.415 15.7838 -6.8353 -1.37021e-005 -2.97968e-006 -2.56064e-007 -3.63949 -0.0194342 -1.99194 2.28692e-006 1.08807e-006 -3.01162 8.03011 -4.95138 0.697627 -73.002 -3.82872 3.35857 -110.156 17.6231 9.92468 -3.37456e-006 2.25737e-006 5.2915e-008 3.63573 -0.0297939 1.9927 1.24367e-005 1.81084e-006 3.01161 -8.0301 -4.95137 -0.697638 178.695 -0.565508 3.91226 180 7.0153e-015 178.85 176.889 11.9761 179.936 4.46378e-006 -1.1319e-006 0.177859 -19.6339 69.1839 20.577 8.13649 25.2327 -3.48774 -179.569 -2.80349 -0.0927856 4.54188e-006 -4.6773e-006 -1.15352 -2.21816 -10.3807 0.0838246 -6.33155e-007 4.57564e-006 -0.179904 19.9483 69.5939 -20.9563 -8.13649 25.2327 3.48774 
52.602 84.375 3.30674 0.0655053 -9.13026 -2.21518 0.323251 -0.313223 0.062914 0.646692 3.36999 0.101245 0.646301 5.015 0.0902245 -6.47335 9.32987 0.828923 6.13447 8.34088 -1.12984 72.0676 -0.159541 -1.5506 106.408 15.7759 -6.82616 -1.37021e-005 -2.97968e-006 -2.56064e-007 -3.63949 -0.0194342 -1.99194 2.28692e-006 1.08807e-006 -3.01162 8.03011 -4.95138 0.697627 -72.9722 -3.82571 3.35506 -110.185 17.6227 9.95192 -3.37456e-006 2.25737e-006 5.2915e-008 3.63573 -0.0297939 1.9927 1.24367e-005 1.81084e-006 3.01161 -8.0301 -4.95137 -0.697638 178.692 -0.552249 3.91352 180 7.0153e-015 178.85 176.886 11.9751 179.936 4.46378e-006 -1.1319e-006 0.177859 -19.6318 69.1816 20.5746 8.13649 25.2327 -3.48774 -179.583 -2.81981 -0.0706739 4.54188e-006 -4.6773e-006 -1.15352 -2.19781 -10.3461 0.0867065 -6.33155e-007 4.57564e-006 -0.179904 19.9464 69.5919 -20.9542 -8.13649 25.2327 3.48774 
52.5926 84.3842 3.30946 0.0666971 -9.11578 -2.2095 0.323146 -0.315154 0.0629238 0.646204 3.36581 0.101319 0.645812 5.01082 0.0903121 -6.46714 9.31982 0.826464 6.13309 8.35241 -1.13048 72.0658 -0.163988 -1.55248 106.401 15.768 -6.81708 -1.37021e-005 -2.97968e-006 -2.56064e-007 -3.63949 -0.0194342 -1.99194 2.28692e-006 1.08807e-006 -3.01162 8.03011 -4.95138 0.697627 -72.9412 -3.82307 3.35165 -110.216 17.6221 9.98032 -3.37456e-006 2.25737e-006 5.2915e-008 3.63573 -0.0297939 1.9927 1.24367e-005 1.81084e-006 3.01161 -8.0301 -4.95137 -0.697638 178.689 -0.5362 3.91448 180 7.0153e-015 178.85 176.883 11.9742 179.935 4.46378e-006 -1.1319e-006 0.177859 -19.6294 69.179 20.572 8.13649 25.2327 -3.48774 -179.597 -2.83534 -0.0476676 4.54188e-006 -4.6773e-006 -1.15352 -2.17682 -10.3097 0.0897307 -6.33155e-007 4.57564e-006 -0.179904 19.9444 69.5899 -20.9519 -8.13649 25.2327 3.48774 
52.6161 84.3795 3.31866 0.0678524 -9.09971 -2.20376 0.32307 -0.317381 0.0629353 0.645759 3.36101 0.101396 0.645367 5.00602 0.0904023 -6.46087 9.3093 0.823965 6.13174 8.3644 -1.13114 72.0639 -0.168527 -1.5544 106.394 15.76 -6.80805 -1.37021e-005 -2.97968e-006 -2.56064e-007 -3.63949 -0.0194342 -1.99194 2.28692e-006 1.08807e-006 -3.01162 8.03011 -4.95138 0.697627 -72.9093 -3.82071 3.3483 -110.248 17.6215 10.0095 -3.37456e-006 2.25737e-006 5.2915e-008 3.63573 -0.0297939 1.9927 1.24367e-005 1.81084e-006 3.01161 -8.0301 -4.95137 -0.697638 178.687 -0.518197 3.91523 180 7.0153e-015 178.85 176.88 11.9732 179.935 4.46378e-006 -1.1319e-006 0.177859 -19.6268 69.1763 20.5692 8.13649 25.2327 -3.48774 -179.612 -2.8503 -0.024035 4.54188e-006 -4.6773e-006 -1.15352 -2.15538 -10.272 0.0928541 -6.33155e-007 4.57564e-006 -0.179904 19.9423 69.5877 -20.9496 -8.13649 25.2327 3.48774 
52.6058 84.3798 3.32098 0.068985 -9.08273 -2.19798 0.323009 -0.319775 0.0629479 0.645339 3.35587 0.101476 0.644947 5.00088 0.090494 -6.45458 9.29852 0.821443 6.13039 8.37667 -1.13182 72.062 -0.173117 -1.55634 106.388 15.752 -6.79903 -1.37021e-005 -2.97968e-006 -2.56064e-007 -3.63949 -0.0194342 -1.99194 2.28692e-006 1.08807e-006 -3.01162 8.03011 -4.95138 0.697627 -72.8769 -3.81849 3.34499 -110.281 17.6208 10.0392 -3.37456e-006 2.25737e-006 5.2915e-008 3.63573 -0.0297939 1.9927 1.24367e-005 1.81084e-006 3.01161 -8.0301 -4.95137 -0.697638 178.684 -0.499079 3.91587 180 7.0153e-015 178.85 176.877 11.9723 179.935 4.46378e-006 -1.1319e-006 0.177859 -19.6242 69.1735 20.5663 8.13649 25.2327 -3.48774 -179.626 -2.86495 -4.41345e-005 4.54188e-006 -4.6773e-006 -1.15352 -2.13368 -10.2336 0.0960339 -6.33155e-007 4.57564e-006 -0.179904 19.9401 69.5855 -20.9471 -8.13649 25.2327 3.48774 
52.614 84.3739 3.32052 0.0701095 -9.06553 -2.19219 0.322952 -0.322212 0.0629606 0.644925 3.35064 0.101557 0.644533 4.99565 0.0905861 -6.44828 9.28767 0.818916 6.12904 8.389 -1.13251 72.06 -0.177721 -1.55828 106.381 15.744 -6.79003 -1.37021e-005 -2.97968e-006 -2.56064e-007 -3.63949 -0.0194342 -1.99194 2.28692e-006 1.08807e-006 -3.01162 8.03011 -4.95138 0.697627 -72.8444 -3.81632 3.34168 -110.313 17.6201 10.069 -3.37456e-006 2.25737e-006 5.2915e-008 3.63573 -0.0297939 1.9927 1.24367e-005 1.81084e-006 3.01161 -8.0301 -4.95137 -0.697638 178.681 -0.479681 3.91648 180 7.0153e-015 178.85 176.874 11.9714 179.934 4.46378e-006 -1.1319e-006 0.177859 -19.6215 69.1706 20.5634 8.13649 25.2327 -3.48774 -179.641 -2.87951 0.0240367 4.54188e-006 -4.6773e-006 -1.15352 -2.11193 -10.195 0.0992272 -6.33155e-007 4.57564e-006 -0.179904 19.938 69.5833 -20.9447 -8.13649 25.2327 3.48774 
52.6182 84.3713 3.31095 0.0712401 -9.04878 -2.18642 0.322887 -0.324565 0.0629729 0.644499 3.34558 0.101636 0.644107 4.99059 0.0906775 -6.442 9.27695 0.8164 6.12769 8.4012 -1.13318 72.0581 -0.182298 -1.56021 106.374 15.736 -6.78101 -1.37021e-005 -2.97968e-006 -2.56064e-007 -3.63949 -0.0194342 -1.99194 2.28692e-006 1.08807e-006 -3.01162 8.03011 -4.95138 0.697627 -72.8122 -3.81407 3.33836 -110.346 17.6194 10.0986 -3.37456e-006 2.25737e-006 5.2915e-008 3.63573 -0.0297939 1.9927 1.24367e-005 1.81084e-006 3.01161 -8.0301 -4.95137 -0.697638 178.678 -0.460841 3.91715 180 7.0153e-015 178.85 176.871 11.9705 179.934 4.46378e-006 -1.1319e-006 0.177859 -19.6189 69.1678 20.5606 8.13649 25.2327 -3.48774 -179.655 -2.89423 0.0479394 4.54188e-006 -4.6773e-006 -1.15352 -2.0903 -10.1568 0.102391 -6.33155e-007 4.57564e-006 -0.179904 19.9358 69.5811 -20.9423 -8.13649 25.2327 3.48774 
52.6167 84.3786 3.31175 0.0723918 -9.03316 -2.1807 0.322802 -0.326707 0.0629839 0.644042 3.34096 0.101713 0.643649 4.98597 0.0907669 -6.43576 9.26656 0.813914 6.12633 8.41306 -1.13384 72.0562 -0.186811 -1.56212 106.367 15.728 -6.77197 -1.37021e-005 -2.97968e-006 -2.56064e-007 -3.63949 -0.0194342 -1.99194 2.28692e-006 1.08807e-006 -3.01162 8.03011 -4.95138 0.697627 -72.7805 -3.81163 3.33499 -110.377 17.6187 10.1275 -3.37456e-006 2.25737e-006 5.2915e-008 3.63573 -0.0297939 1.9927 1.24367e-005 1.81084e-006 3.01161 -8.0301 -4.95137 -0.697638 178.676 -0.443397 3.91797 180 7.0153e-015 178.85 176.868 11.9695 179.934 4.46378e-006 -1.1319e-006 0.177859 -19.6163 69.1651 20.5578 8.13649 25.2327 -3.48774 -179.67 -2.90936 0.0713957 4.54188e-006 -4.6773e-006 -1.15352 -2.06901 -10.1195 0.105483 -6.33155e-007 4.57564e-006 -0.179904 19.9338 69.579 -20.94 -8.13649 25.2327 3.48774 
52.6214 84.3742 3.30985 0.0735798 -9.01936 -2.17505 0.322685 -0.328512 0.062993 0.643535 3.33704 0.101785 0.643142 4.98206 0.0908534 -6.42957 9.25671 0.811474 6.12494 8.42438 -1.13447 72.0545 -0.191219 -1.56399 106.36 15.7201 -6.76287 -1.37021e-005 -2.97968e-006 -2.56064e-007 -3.63949 -0.0194342 -1.99194 2.28692e-006 1.08807e-006 -3.01162 8.03011 -4.95138 0.697627 -72.7499 -3.80888 3.33155 -110.408 17.6182 10.1556 -3.37456e-006 2.25737e-006 5.2915e-008 3.63573 -0.0297939 1.9927 1.24367e-005 1.81084e-006 3.01161 -8.0301 -4.95137 -0.697638 178.673 -0.428185 3.91902 180 7.0153e-015 178.85 176.865 11.9686 179.934 4.46378e-006 -1.1319e-006 0.177859 -19.614 69.1626 20.5553 8.13649 25.2327 -3.48774 -179.684 -2.92512 0.0941375 4.54188e-006 -4.6773e-006 -1.15352 -2.04823 -10.0836 0.108461 -6.33155e-007 4.57564e-006 -0.179904 19.9318 69.577 -20.9378 -8.13649 25.2327 3.48774 
52.6166 84.3799 3.30655 0.0748195 -9.00806 -2.16951 0.322525 -0.329854 0.0629994 0.642959 3.33408 0.101851 0.642566 4.9791 0.0909357 -6.42348 9.2476 0.809098 6.12353 8.43497 -1.13506 72.0529 -0.195484 -1.56581 106.353 15.7123 -6.75371 -1.37021e-005 -2.97968e-006 -2.56064e-007 -3.63949 -0.0194342 -1.99194 2.28692e-006 1.08807e-006 -3.01162 8.03011 -4.95138 0.697627 -72.7206 -3.80571 3.328 -110.437 17.6178 10.1824 -3.37456e-006 2.25737e-006 5.2915e-008 3.63573 -0.0297939 1.9927 1.24367e-005 1.81084e-006 3.01161 -8.0301 -4.95137 -0.697638 178.67 -0.416043 3.92039 180 7.0153e-015 178.85 176.862 11.9675 179.933 4.46378e-006 -1.1319e-006 0.177859 -19.612 69.1604 20.5531 8.13649 25.2327 -3.48774 -179.697 -2.94176 0.115897 4.54188e-006 -4.6773e-006 -1.15352 -2.02817 -10.0498 0.111281 -6.33155e-007 4.57564e-006 -0.179904 19.93 69.5751 -20.9357 -8.13649 25.2327 3.48774 
